<svg xmlns="http://www.w3.org/2000/svg" xmlns:xlink="http://www.w3.org/1999/xlink" viewBox="0 0 64 64"><defs><linearGradient id="gradient_ice" x1="-3.172" y1="60.089" x2="68.604" y2="-8.927" gradientUnits="userSpaceOnUse"><stop offset="0" stop-color="#ffb957" id="id_103"></stop><stop offset="1" stop-color="#ffba59" id="id_104"></stop></linearGradient><linearGradient id="gradient_ice-2" x1="4.188" y1="67.743" x2="75.964" y2="-1.273" xlink:href="#gradient_ice"></linearGradient></defs><g id="Frame"><path d="M25,37a4,4,0,1,0-4-4A4,4,0,0,0,25,37Zm0-6a2,2,0,1,1-2,2A2,2,0,0,1,25,31Z" style="fill:url(#gradient_ice)" id="id_101"></path><path d="M61,20H57V19a3,3,0,0,0-3-3,2.971,2.971,0,0,0-1.91.706L35.826,7.1A3.957,3.957,0,0,0,36,6a4,4,0,0,0-8,0,3.957,3.957,0,0,0,.174,1.1l-16.264,9.6A2.971,2.971,0,0,0,10,16a3,3,0,0,0-3,3v1H3a1,1,0,0,0-1,1V61a1,1,0,0,0,1,1H61a1,1,0,0,0,1-1V21A1,1,0,0,0,61,20ZM8,22H58.586l-2,2H7.414l-2-2Zm4.941-3.58L29.18,8.833a3.991,3.991,0,0,0,5.64,0L51.059,18.42A3,3,0,0,0,51,19v1H13V19A3,3,0,0,0,12.941,18.42ZM56,46.365,42.727,32.313A1.025,1.025,0,0,0,41.979,32a1,1,0,0,0-.735.346L29.85,45.49l-4.241-3.467-.937-.776a1.07,1.07,0,0,0-1.236-.073l-4.678,3.2L8,51.64V26H56Zm-32.03-3.1.407.333,2.47,2.045-1.165,1.941-2.127-1.418a1,1,0,0,0-1.262.125l-1.21,1.21L19.9,46.019Zm22.465-4.116L45,40.586l-2.293-2.293a1,1,0,0,0-1.414,0L40,39.586l-1.277-1.278,3.309-3.818ZM8,54.157l10.241-7.006,1.978,2.474a1,1,0,0,0,1.488.082l1.42-1.42,2.318,1.545A1,1,0,0,0,26,50a1.036,1.036,0,0,0,.22-.024,1,1,0,0,0,.637-.461l1.548-2.579,5.937,4.918,1.276-1.54-4.25-3.52,6.042-6.971,1.883,1.884a1,1,0,0,0,1.414,0L42,40.414l2.293,2.293a1,1,0,0,0,1.414,0l2.1-2.1L56,49.277V56H8ZM6,25.414V56.586l-2,2V23.414ZM7.414,58H56.586l2,2H5.414ZM58,56.586V25.414l2-2V58.586ZM53,19a1,1,0,0,1,2,0v1H53ZM32,4a2,2,0,1,1-2,2A2,2,0,0,1,32,4ZM9,19a1,1,0,0,1,2,0v1H9Z" style="fill:url(#gradient_ice-2)" id="id_102"></path></g></svg>